<svg width="63" height="80" viewBox="0 0 63 80" fill="none" xmlns="http://www.w3.org/2000/svg">
<mask id="mask0_514_2095" style="mask-type:luminance" maskUnits="userSpaceOnUse" x="7" y="29" width="50" height="49">
<path d="M56.1691 29.0029H7V78H56.1691V29.0029Z" fill="white"/>
</mask>
<g mask="url(#mask0_514_2095)">
<path d="M38.731 50.8955L46.0822 43.2988L46.4996 43.0546C46.0677 42.5663 44.4294 41.0711 41.3236 39.001C40.9101 39.001 36.204 43.8882 33.9054 46.3325L33.8477 46.3863L38.731 50.8955Z" fill="#103741"/>
<path d="M15.9682 77.8258C13.3861 77.789 10.7856 77.7523 8.15625 77.7523V43.2462H14.4835V71.5759H14.5741C16.9541 71.4775 19.3156 71.4722 21.6628 71.467C23.0332 71.467 24.3958 71.467 25.7506 71.4394C29.4262 71.3803 33.0296 71.1848 36.549 70.4811C42.85 69.1973 47.1688 64.4059 48.8347 58.7376C50.5005 53.0693 49.5212 46.5162 45.2326 41.7012C44.9188 41.3625 44.5933 41.0225 44.2546 40.672L44.2165 40.6313C43.933 40.3359 43.6403 40.0327 43.3383 39.7124C46.4888 39.7492 49.5396 41.2457 51.8644 43.5731C54.2391 45.9478 55.8538 49.1836 56.0651 52.5967C56.791 65.0478 46.6792 76.8819 34.1428 77.6026C28.1135 77.9938 22.0973 77.9124 15.9682 77.8258Z" fill="#103741" stroke="#1D4969" stroke-width="0.227093"/>
<path d="M17.5345 66.8921C17.2352 66.5928 17.2864 66.1728 17.331 65.9509C17.3733 65.7667 17.4281 65.5855 17.4951 65.4088C17.5069 65.3759 17.5174 65.3484 17.524 65.3274C17.6185 65.0491 18.4547 63.0393 19.4865 60.5753C20.3306 58.5577 21.3164 56.2132 22.1592 54.2087C22.3509 53.7518 22.5359 53.3121 22.7092 52.896C22.9012 52.4579 23.2507 52.1079 23.6885 51.9154C24.1046 51.7408 28.111 50.0342 30.2363 49.1153L30.7444 47.4272V47.4127V47.3996C31.0088 46.732 31.5027 46.1804 32.1371 45.8441C32.4632 45.6701 32.832 45.5927 33.2004 45.6209C33.6086 45.6628 33.9884 45.849 34.2716 46.146L34.8453 46.7196L36.2893 48.1636L36.7776 48.652C37.1907 49.065 37.6037 49.4781 38.0168 49.8912C38.2793 50.1537 38.5498 50.4254 38.8176 50.6906C39.0634 50.9063 39.275 51.1582 39.445 51.4375V51.4467C39.5425 51.6337 39.6023 51.8379 39.6209 52.0479C39.6491 52.4164 39.5717 52.7852 39.3978 53.1112C39.0659 53.7425 38.5214 54.2359 37.8606 54.504H37.8475H37.833L36.1383 55.0226C35.2286 57.1478 33.5129 61.1543 33.3409 61.5704C33.1484 62.0082 32.7984 62.3577 32.3603 62.5497L31.0476 63.0997C29.0431 63.9425 26.6986 64.9283 24.6809 65.7724C22.217 66.8042 20.2072 67.6404 19.9289 67.7415L19.8475 67.7703C19.6707 67.8373 19.4896 67.8922 19.3054 67.9344C19.0835 67.9791 18.6634 68.0303 18.3641 67.731L18.2526 67.6194L17.948 67.3148L17.5345 66.8921ZM26.3599 58.2899L26.969 58.9003L18.8656 67.0037L18.9588 67.0956C19.0166 67.0989 19.0745 67.0936 19.1308 67.0798C19.2604 67.0505 19.3877 67.0115 19.5114 66.963L19.6493 66.9144C19.8895 66.8331 21.852 66.0179 24.3462 64.9743C26.3625 64.1302 28.7044 63.1456 30.7089 62.3029L32.0216 61.7502C32.2454 61.645 32.4248 61.4641 32.5283 61.2396C32.7016 60.8234 34.3766 56.9076 35.2942 54.7679L33.0862 52.5415L30.4923 49.9476C28.3513 50.8665 24.4368 52.5402 24.0206 52.7135C23.7961 52.817 23.6152 52.9964 23.51 53.2202L22.9691 54.5067L22.9573 54.5355C22.1146 56.5401 21.13 58.8833 20.2859 60.8996C19.2358 63.3937 18.4271 65.3562 18.3458 65.5965L18.2972 65.7277C18.2487 65.8515 18.2097 65.9788 18.1804 66.1084C18.1666 66.1647 18.1613 66.2226 18.1646 66.2804L18.2578 66.3736L26.3612 58.2702L26.3599 58.2899ZM33.3265 51.5622L35.944 54.1798L37.5626 53.6915C38.0233 53.5025 38.4042 53.1597 38.6403 52.7214C38.739 52.5399 38.7845 52.3342 38.7716 52.128C38.7491 51.9206 38.6521 51.7284 38.4986 51.5872H38.492V51.5806H38.4854V51.5741H38.4789V51.5675H38.4723V51.5609H38.4657H38.4592V51.5544H38.4526V51.5478V51.5412L38.4461 51.5347H38.4395V51.5281H38.4329V51.5215H38.4264V51.515H38.4198V51.5084H38.4132V51.5019H38.4067V51.4953H38.4001V51.4887H38.3935H38.387V51.4822H38.3804V51.4756H38.3739V51.469V51.4625L38.3673 51.4559H38.3607V51.4493H38.3542V51.4428H38.3476V51.4362H38.341V51.4297H38.3345V51.4231H38.3279V51.4165H38.3213V51.41H38.3148V51.4034H38.3082H38.3017V51.3968H38.2951V51.3903H38.2885H38.282V51.3837H38.2754V51.3772H38.2688V51.3706H38.2623L38.2557 51.364H38.2491V51.3575H38.2426V51.3509H38.236V51.3443L38.2295 51.3378H38.2229V51.3312H38.2163V51.3246H38.2098V51.3181H38.2032V51.3115H38.1966V51.3049H38.1901V51.2984H38.1835V51.2918H38.1769H38.1704V51.2853H38.1638V51.2787H38.1573V51.2721H38.1507V51.2656H38.1441V51.259H38.1376V51.2524H38.131V51.2459H38.1244V51.2393V51.2328V51.2262H38.1179V51.2196H38.1113H38.1047V51.2131H38.0982V51.2065V51.1999H38.0916V51.1934H38.0851V51.1868H38.0785V51.1802H38.0719H38.0654V51.1737H38.0588V51.1671H38.0522V51.1605H38.0457V51.154H38.0391V51.1474V51.1409V51.1343L33.6704 46.7525C33.5288 46.6039 33.3389 46.5108 33.1348 46.4899C32.9286 46.4764 32.7227 46.5219 32.5415 46.6212C32.1031 46.8574 31.7603 47.2382 31.5714 47.6989L31.083 49.3175L33.3265 51.5622Z" fill="#103741"/>
<path d="M34.1172 46.2459L41.3634 39.001" stroke="#1D4969" stroke-width="0.68128"/>
<path d="M17.9805 67.3901L26.7757 58.1499Z" fill="#1D4969"/>
<path d="M26.9467 59.0257C27.6615 59.0257 28.241 58.4462 28.241 57.7314C28.241 57.0165 27.6615 56.437 26.9467 56.437C26.2318 56.437 25.6523 57.0165 25.6523 57.7314C25.6523 58.4462 26.2318 59.0257 26.9467 59.0257Z" fill="#1D4969"/>
<path d="M38.582 51.2521L46.5174 42.9702" stroke="#1D4969" stroke-width="0.68128"/>
</g>
<path d="M56.1579 53.5075C56.3246 48.3131 54.0576 43.2893 50.9425 39.2422C47.0582 34.2001 41.3334 31.2071 36.0419 27.9017C33.8208 26.5141 31.6101 25.1082 29.3707 23.7495C27.5027 22.6153 25.5178 21.5415 23.9426 20.003C22.2597 18.3595 21.2856 16.2067 20.5623 14C19.8508 15.9612 18.3202 23.3203 23.4582 27.6811C23.4858 27.6378 26.9041 29.8261 27.2112 30.0217C33.889 34.2854 40.8464 38.2747 46.9558 43.3352C50.3282 46.1733 56.1579 53.5075 56.1579 53.5075Z" fill="#FE5D37"/>
</svg>
