<svg width="183" height="80" viewBox="0 0 183 80" fill="none" xmlns="http://www.w3.org/2000/svg">
<path d="M6.2642 19.2273C5.21307 19.2273 4.30634 18.9953 3.54403 18.5312C2.78646 18.0625 2.2017 17.4091 1.78977 16.571C1.38258 15.7282 1.17898 14.7481 1.17898 13.6307C1.17898 12.5133 1.38258 11.5284 1.78977 10.6761C2.2017 9.81913 2.77462 9.15152 3.50852 8.6733C4.24716 8.19034 5.1089 7.94886 6.09375 7.94886C6.66193 7.94886 7.22301 8.04356 7.77699 8.23295C8.33097 8.42235 8.83523 8.73011 9.28977 9.15625C9.74432 9.57765 10.1065 10.1364 10.3764 10.8324C10.6463 11.5284 10.7812 12.3854 10.7812 13.4034V14.1136H2.37216V12.6648H9.0767C9.0767 12.0492 8.9536 11.5 8.70739 11.017C8.46591 10.5341 8.12027 10.1529 7.67045 9.87358C7.22538 9.59422 6.69981 9.45455 6.09375 9.45455C5.42614 9.45455 4.84848 9.62026 4.3608 9.9517C3.87784 10.2784 3.50616 10.7045 3.24574 11.2301C2.98532 11.7557 2.85511 12.3191 2.85511 12.9205V13.8864C2.85511 14.7102 2.99716 15.4086 3.28125 15.9815C3.57008 16.5497 3.97017 16.983 4.48153 17.2812C4.9929 17.5748 5.58712 17.7216 6.2642 17.7216C6.70455 17.7216 7.10227 17.66 7.45739 17.5369C7.81724 17.4091 8.12737 17.2197 8.38778 16.9688C8.6482 16.7131 8.84943 16.3958 8.99148 16.017L10.6108 16.4716C10.4403 17.0208 10.1539 17.5038 9.75142 17.9205C9.34896 18.3324 8.8518 18.6544 8.25994 18.8864C7.66809 19.1136 7.00284 19.2273 6.2642 19.2273ZM13.331 19V8.09091H14.9503V9.73864H15.0639C15.2628 9.19886 15.6226 8.76089 16.1435 8.42472C16.6643 8.08854 17.2514 7.92045 17.9048 7.92045C18.0279 7.92045 18.1818 7.92282 18.3665 7.92756C18.5511 7.93229 18.6908 7.93939 18.7855 7.94886V9.65341C18.7287 9.6392 18.5985 9.6179 18.3949 9.58949C18.196 9.55634 17.9853 9.53977 17.7628 9.53977C17.2325 9.53977 16.759 9.65104 16.3423 9.87358C15.9304 10.0914 15.6037 10.3944 15.3622 10.7827C15.1255 11.1662 15.0071 11.6042 15.0071 12.0966V19H13.331ZM23.4197 19L20.0959 8.09091H21.8572L24.2152 16.4432H24.3288L26.6584 8.09091H28.4482L30.7493 16.4148H30.8629L33.2209 8.09091H34.9822L31.6584 19H30.0107L27.6243 10.6193H27.4538L25.0675 19H23.4197ZM41.4009 19.2273C40.3498 19.2273 39.4431 18.9953 38.6808 18.5312C37.9232 18.0625 37.3384 17.4091 36.9265 16.571C36.5193 15.7282 36.3157 14.7481 36.3157 13.6307C36.3157 12.5133 36.5193 11.5284 36.9265 10.6761C37.3384 9.81913 37.9113 9.15152 38.6452 8.6733C39.3839 8.19034 40.2456 7.94886 41.2305 7.94886C41.7987 7.94886 42.3597 8.04356 42.9137 8.23295C43.4677 8.42235 43.9719 8.73011 44.4265 9.15625C44.881 9.57765 45.2433 10.1364 45.5131 10.8324C45.783 11.5284 45.918 12.3854 45.918 13.4034V14.1136H37.5089V12.6648H44.2134C44.2134 12.0492 44.0903 11.5 43.8441 11.017C43.6026 10.5341 43.257 10.1529 42.8072 9.87358C42.3621 9.59422 41.8365 9.45455 41.2305 9.45455C40.5629 9.45455 39.9852 9.62026 39.4975 9.9517C39.0146 10.2784 38.6429 10.7045 38.3825 11.2301C38.122 11.7557 37.9918 12.3191 37.9918 12.9205V13.8864C37.9918 14.7102 38.1339 15.4086 38.418 15.9815C38.7068 16.5497 39.1069 16.983 39.6183 17.2812C40.1296 17.5748 40.7238 17.7216 41.4009 17.7216C41.8413 17.7216 42.239 17.66 42.5941 17.5369C42.954 17.4091 43.2641 17.2197 43.5245 16.9688C43.7849 16.7131 43.9862 16.3958 44.1282 16.017L45.7475 16.4716C45.5771 17.0208 45.2906 17.5038 44.8881 17.9205C44.4857 18.3324 43.9885 18.6544 43.3967 18.8864C42.8048 19.1136 42.1396 19.2273 41.4009 19.2273ZM48.4677 19V8.09091H50.087V9.73864H50.2006C50.3995 9.19886 50.7594 8.76089 51.2802 8.42472C51.801 8.08854 52.3881 7.92045 53.0415 7.92045C53.1647 7.92045 53.3185 7.92282 53.5032 7.92756C53.6879 7.93229 53.8275 7.93939 53.9222 7.94886V9.65341C53.8654 9.6392 53.7352 9.6179 53.5316 9.58949C53.3327 9.55634 53.122 9.53977 52.8995 9.53977C52.3692 9.53977 51.8957 9.65104 51.479 9.87358C51.0671 10.0914 50.7404 10.3944 50.4989 10.7827C50.2622 11.1662 50.1438 11.6042 50.1438 12.0966V19H48.4677ZM58.5565 19L55.2326 8.09091H56.994L59.3519 16.4432H59.4656L61.7951 8.09091H63.5849L65.886 16.4148H65.9996L68.3576 8.09091H70.119L66.7951 19H65.1474L62.761 10.6193H62.5906L60.2042 19H58.5565ZM76.5376 19.2273C75.4865 19.2273 74.5798 18.9953 73.8175 18.5312C73.0599 18.0625 72.4751 17.4091 72.0632 16.571C71.656 15.7282 71.4524 14.7481 71.4524 13.6307C71.4524 12.5133 71.656 11.5284 72.0632 10.6761C72.4751 9.81913 73.0481 9.15152 73.782 8.6733C74.5206 8.19034 75.3823 7.94886 76.3672 7.94886C76.9354 7.94886 77.4964 8.04356 78.0504 8.23295C78.6044 8.42235 79.1087 8.73011 79.5632 9.15625C80.0178 9.57765 80.38 10.1364 80.6499 10.8324C80.9197 11.5284 81.0547 12.3854 81.0547 13.4034V14.1136H72.6456V12.6648H79.3501C79.3501 12.0492 79.227 11.5 78.9808 11.017C78.7393 10.5341 78.3937 10.1529 77.9439 9.87358C77.4988 9.59422 76.9732 9.45455 76.3672 9.45455C75.6996 9.45455 75.1219 9.62026 74.6342 9.9517C74.1513 10.2784 73.7796 10.7045 73.5192 11.2301C73.2588 11.7557 73.1286 12.3191 73.1286 12.9205V13.8864C73.1286 14.7102 73.2706 15.4086 73.5547 15.9815C73.8435 16.5497 74.2436 16.983 74.755 17.2812C75.2663 17.5748 75.8606 17.7216 76.5376 17.7216C76.978 17.7216 77.3757 17.66 77.7308 17.5369C78.0907 17.4091 78.4008 17.2197 78.6612 16.9688C78.9216 16.7131 79.1229 16.3958 79.2649 16.017L80.8842 16.4716C80.7138 17.0208 80.4273 17.5038 80.0249 17.9205C79.6224 18.3324 79.1252 18.6544 78.5334 18.8864C77.9415 19.1136 77.2763 19.2273 76.5376 19.2273Z" fill="white"/>
<path d="M10.5177 59H3.07629V34.8861H10.8474C13.1865 34.8861 15.1882 35.3689 16.8523 36.3344C18.5164 37.292 19.7919 38.6696 20.6789 40.4672C21.5659 42.2569 22.0094 44.3998 22.0094 46.896C22.0094 49.4078 21.562 51.5704 20.6672 53.3836C19.7723 55.189 18.4693 56.5784 16.7581 57.5518C15.0469 58.5173 12.9667 59 10.5177 59ZM5.99632 56.4096H10.3293C12.3231 56.4096 13.9754 56.025 15.2863 55.2558C16.5972 54.4865 17.5744 53.3915 18.2181 51.9707C18.8618 50.5499 19.1836 48.8584 19.1836 46.896C19.1836 44.9493 18.8657 43.2734 18.2299 41.8683C17.5941 40.4554 16.6443 39.3722 15.3805 38.6186C14.1167 37.8572 12.5429 37.4765 10.659 37.4765H5.99632V56.4096ZM34.1135 59.3768C32.3709 59.3768 30.8677 58.9922 29.6039 58.2229C28.3479 57.4458 27.3785 56.3625 26.6956 54.9732C26.0206 53.576 25.683 51.9511 25.683 50.0986C25.683 48.2461 26.0206 46.6134 26.6956 45.2005C27.3785 43.7797 28.3283 42.6729 29.545 41.8801C30.7695 41.0795 32.1982 40.6791 33.8309 40.6791C34.7728 40.6791 35.703 40.8361 36.6214 41.1501C37.5398 41.4641 38.3758 41.9743 39.1293 42.6808C39.8829 43.3794 40.4834 44.3056 40.9308 45.4595C41.3782 46.6134 41.6019 48.0342 41.6019 49.7218V50.8993H27.6611V48.4973H38.7761C38.7761 47.4768 38.572 46.5663 38.1638 45.7656C37.7635 44.965 37.1905 44.3331 36.4448 43.87C35.7069 43.4068 34.8356 43.1753 33.8309 43.1753C32.7241 43.1753 31.7664 43.45 30.9579 43.9995C30.1573 44.5411 29.5411 45.2476 29.1094 46.1189C28.6776 46.9902 28.4618 47.9243 28.4618 48.9212V50.5225C28.4618 51.8883 28.6973 53.0461 29.1682 53.9959C29.6471 54.9379 30.3103 55.6561 31.1581 56.1506C32.0058 56.6373 32.991 56.8806 34.1135 56.8806C34.8435 56.8806 35.5028 56.7786 36.0915 56.5745C36.6881 56.3625 37.2023 56.0486 37.634 55.6325C38.0657 55.2087 38.3993 54.6827 38.6348 54.0548L41.3194 54.8083C41.0368 55.7189 40.5619 56.5195 39.8947 57.2103C39.2274 57.8932 38.4032 58.427 37.422 58.8116C36.4408 59.1884 35.338 59.3768 34.1135 59.3768ZM58.6394 44.965L56.1432 45.6714C55.9863 45.2554 55.7547 44.8512 55.4486 44.4587C55.1503 44.0584 54.7421 43.7287 54.224 43.4696C53.706 43.2106 53.0427 43.0811 52.2342 43.0811C51.1274 43.0811 50.2051 43.3362 49.4672 43.8464C48.7372 44.3488 48.3722 44.9885 48.3722 45.7656C48.3722 46.4564 48.6234 47.0019 49.1257 47.4023C49.6281 47.8026 50.4131 48.1362 51.4806 48.4031L54.1652 49.0625C55.7822 49.4549 56.9871 50.0554 57.7799 50.8639C58.5727 51.6646 58.9691 52.6968 58.9691 53.9606C58.9691 54.9967 58.6708 55.923 58.0742 56.7393C57.4855 57.5557 56.6613 58.1993 55.6016 58.6703C54.5419 59.1413 53.3096 59.3768 51.9045 59.3768C50.0598 59.3768 48.5331 58.9765 47.3243 58.1758C46.1154 57.3751 45.3501 56.2056 45.0283 54.667L47.6657 54.0077C47.9169 54.981 48.3918 55.711 49.0904 56.1977C49.7969 56.6844 50.7192 56.9277 51.8574 56.9277C53.1526 56.9277 54.1809 56.653 54.9423 56.1035C55.7115 55.5462 56.0962 54.879 56.0962 54.1019C56.0962 53.4739 55.8764 52.948 55.4368 52.5241C54.9972 52.0924 54.3222 51.7706 53.4116 51.5586L50.3974 50.8522C48.7411 50.4597 47.5244 49.8513 46.7473 49.0271C45.9781 48.1951 45.5934 47.155 45.5934 45.9069C45.5934 44.8865 45.8799 43.9838 46.453 43.1988C47.0338 42.4139 47.8227 41.7977 48.8196 41.3503C49.8244 40.9028 50.9625 40.6791 52.2342 40.6791C54.0239 40.6791 55.4289 41.0716 56.4494 41.8566C57.4777 42.6415 58.2077 43.6777 58.6394 44.965ZM63.1519 59V40.9146H65.9307V59H63.1519ZM64.5648 37.9004C64.0232 37.9004 63.5562 37.7159 63.1637 37.347C62.7791 36.9781 62.5868 36.5346 62.5868 36.0165C62.5868 35.4984 62.7791 35.0549 63.1637 34.686C63.5562 34.3171 64.0232 34.1326 64.5648 34.1326C65.1065 34.1326 65.5696 34.3171 65.9542 34.686C66.3467 35.0549 66.5429 35.4984 66.5429 36.0165C66.5429 36.5346 66.3467 36.9781 65.9542 37.347C65.5696 37.7159 65.1065 37.9004 64.5648 37.9004ZM78.3202 66.1588C76.9779 66.1588 75.8241 65.9861 74.8586 65.6407C73.8931 65.3032 73.0885 64.8558 72.4448 64.2985C71.809 63.749 71.3027 63.1603 70.9259 62.5323L73.1395 60.9781C73.3907 61.3078 73.7086 61.6846 74.0932 62.1084C74.4779 62.5402 75.0038 62.913 75.671 63.227C76.3461 63.5488 77.2291 63.7097 78.3202 63.7097C79.7802 63.7097 80.9851 63.3565 81.9349 62.65C82.8847 61.9436 83.3596 60.8368 83.3596 59.3297V55.6561H83.1241C82.9201 55.9858 82.6296 56.3939 82.2528 56.8806C81.8839 57.3594 81.3501 57.7872 80.6515 58.164C79.9608 58.533 79.0267 58.7174 77.8492 58.7174C76.3892 58.7174 75.0783 58.372 73.9166 57.6813C72.7627 56.9905 71.8483 55.9858 71.1732 54.667C70.506 53.3483 70.1724 51.747 70.1724 49.8631C70.1724 48.0106 70.4981 46.3975 71.1496 45.0239C71.8012 43.6423 72.7078 42.5748 73.8695 41.8212C75.0313 41.0598 76.3735 40.6791 77.8963 40.6791C79.0738 40.6791 80.0079 40.8754 80.6986 41.2678C81.3972 41.6525 81.931 42.092 82.2999 42.5866C82.6767 43.0732 82.9672 43.4736 83.1712 43.7875H83.4538V40.9146H86.1384V59.5181C86.1384 61.0723 85.7852 62.3361 85.0787 63.3094C84.3801 64.2906 83.4381 65.0088 82.2528 65.4641C81.0754 65.9272 79.7645 66.1588 78.3202 66.1588ZM78.226 56.2213C79.3407 56.2213 80.2826 55.9661 81.0519 55.4559C81.8211 54.9457 82.4059 54.2118 82.8062 53.2541C83.2066 52.2965 83.4067 51.1504 83.4067 49.816C83.4067 48.513 83.2105 47.363 82.818 46.3661C82.4255 45.3692 81.8447 44.5882 81.0754 44.023C80.3062 43.4579 79.3564 43.1753 78.226 43.1753C77.0486 43.1753 76.0674 43.4736 75.2824 44.0701C74.5053 44.6667 73.9205 45.4674 73.5281 46.4721C73.1434 47.4768 72.9511 48.5915 72.9511 49.816C72.9511 51.0719 73.1474 52.1827 73.5398 53.1482C73.9402 54.1058 74.5289 54.8594 75.306 55.4088C76.0909 55.9504 77.0643 56.2213 78.226 56.2213ZM94.0036 48.1205V59H91.2249V40.9146H93.9094V43.7405H94.1449C94.5688 42.8221 95.2125 42.0842 96.0759 41.5269C96.9394 40.9617 98.054 40.6791 99.4198 40.6791C100.644 40.6791 101.716 40.9303 102.634 41.4327C103.553 41.9272 104.267 42.6808 104.777 43.6934C105.287 44.6981 105.542 45.9697 105.542 47.5082V59H102.764V47.6966C102.764 46.2759 102.395 45.1691 101.657 44.3763C100.919 43.5756 99.9065 43.1753 98.6192 43.1753C97.7322 43.1753 96.9394 43.3676 96.2408 43.7522C95.55 44.1369 95.0045 44.6981 94.6041 45.436C94.2038 46.1738 94.0036 47.0687 94.0036 48.1205Z" fill="#FE5D37"/>
<path d="M108.156 37.4765V34.8861H126.242V37.4765H118.659V59H115.739V37.4765H108.156ZM135.332 59.3768C133.589 59.3768 132.086 58.9922 130.822 58.2229C129.566 57.4458 128.597 56.3625 127.914 54.9732C127.239 53.576 126.901 51.9511 126.901 50.0986C126.901 48.2461 127.239 46.6134 127.914 45.2005C128.597 43.7797 129.546 42.6729 130.763 41.8801C131.988 41.0795 133.416 40.6791 135.049 40.6791C135.991 40.6791 136.921 40.8361 137.84 41.1501C138.758 41.4641 139.594 41.9743 140.347 42.6808C141.101 43.3794 141.702 44.3056 142.149 45.4595C142.596 46.6134 142.82 48.0342 142.82 49.7218V50.8993H128.879V48.4973H139.994C139.994 47.4768 139.79 46.5663 139.382 45.7656C138.982 44.965 138.409 44.3331 137.663 43.87C136.925 43.4068 136.054 43.1753 135.049 43.1753C133.942 43.1753 132.985 43.45 132.176 43.9995C131.375 44.5411 130.759 45.2476 130.327 46.1189C129.896 46.9902 129.68 47.9243 129.68 48.9212V50.5225C129.68 51.8883 129.915 53.0461 130.386 53.9959C130.865 54.9379 131.528 55.6561 132.376 56.1506C133.224 56.6373 134.209 56.8806 135.332 56.8806C136.062 56.8806 136.721 56.7786 137.31 56.5745C137.906 56.3625 138.42 56.0486 138.852 55.6325C139.284 55.2087 139.617 54.6827 139.853 54.0548L142.537 54.8083C142.255 55.7189 141.78 56.5195 141.113 57.2103C140.446 57.8932 139.621 58.427 138.64 58.8116C137.659 59.1884 136.556 59.3768 135.332 59.3768ZM154.394 59.3768C152.699 59.3768 151.239 58.9765 150.014 58.1758C148.79 57.3751 147.848 56.2723 147.188 54.8672C146.529 53.4621 146.199 51.8569 146.199 50.0515C146.199 48.2147 146.537 46.5938 147.212 45.1887C147.895 43.7758 148.845 42.6729 150.061 41.8801C151.286 41.0795 152.714 40.6791 154.347 40.6791C155.619 40.6791 156.765 40.9146 157.785 41.3856C158.806 41.8566 159.642 42.5159 160.293 43.3637C160.945 44.2114 161.349 45.2005 161.506 46.3308H158.727C158.515 45.5066 158.044 44.7766 157.314 44.1408C156.592 43.4971 155.619 43.1753 154.394 43.1753C153.311 43.1753 152.361 43.4579 151.545 44.023C150.736 44.5804 150.104 45.3692 149.649 46.3897C149.202 47.4023 148.978 48.5915 148.978 49.9573C148.978 51.3545 149.198 52.5712 149.637 53.6074C150.085 54.6435 150.713 55.4481 151.521 56.0211C152.338 56.5941 153.295 56.8806 154.394 56.8806C155.116 56.8806 155.772 56.755 156.361 56.5038C156.949 56.2527 157.448 55.8916 157.856 55.4206C158.264 54.9496 158.555 54.3845 158.727 53.7251H161.506C161.349 54.7926 160.96 55.7542 160.34 56.6098C159.728 57.4576 158.916 58.1326 157.903 58.635C156.898 59.1295 155.729 59.3768 154.394 59.3768ZM168.347 48.1205V59H165.568V34.8861H168.347V43.7405H168.582C169.006 42.8064 169.642 42.0646 170.49 41.5151C171.345 40.9578 172.484 40.6791 173.904 40.6791C175.137 40.6791 176.216 40.9264 177.142 41.4209C178.069 41.9076 178.787 42.6572 179.297 43.6698C179.815 44.6745 180.074 45.954 180.074 47.5082V59H177.295V47.6966C177.295 46.2602 176.922 45.1494 176.177 44.3645C175.439 43.5717 174.415 43.1753 173.104 43.1753C172.193 43.1753 171.377 43.3676 170.655 43.7522C169.94 44.1369 169.375 44.6981 168.959 45.436C168.551 46.1738 168.347 47.0687 168.347 48.1205Z" fill="#103741"/>
</svg>
