<svg id="Layer_1" data-name="Layer 1" xmlns="http://www.w3.org/2000/svg" xmlns:xlink="http://www.w3.org/1999/xlink" viewBox="0 0 595.28 841.89"><defs><style>.cls-1,.cls-5{fill:none;}.cls-2{clip-path:url(#clip-path);}.cls-3,.cls-4{fill:#1d4969;}.cls-4,.cls-5{stroke:#1d4969;}.cls-5{stroke-width:3px;}.cls-6{fill:#ff8731;}</style><clipPath id="clip-path"><rect class="cls-1" x="108.22" y="257.76" width="374.56" height="373.25"/></clipPath></defs><title>logo 1</title><g class="cls-2"><path class="cls-3" d="M349.8,424.57l56-57.87,3.18-1.86c-3.29-3.72-15.77-15.11-39.43-30.88-3.15,0-39,37.23-56.51,55.85l-.44.41Z"/><path class="cls-4" d="M176.31,629.72c-19.67-.28-39.48-.56-59.51-.56V366.3H165V582.11l.69,0c18.13-.75,36.12-.79,54-.83,10.44,0,20.82,0,31.14-.21,28-.45,55.45-1.94,82.26-7.3h0c48-9.78,80.9-46.28,93.59-89.46s5.23-93.1-27.44-129.78h0c-2.39-2.58-4.87-5.17-7.45-7.84l-.29-.31c-2.16-2.25-4.39-4.56-6.69-7,24,.28,47.24,11.68,64.95,29.41,18.09,18.09,30.39,42.74,32,68.74,5.53,94.85-71.5,185-167,190.49h0C268.83,631,223,630.38,176.31,629.72Z"/><path class="cls-3" d="M188.16,546.42c-2.28-2.28-1.89-5.48-1.55-7.17a31.55,31.55,0,0,1,1.25-4.13c.09-.25.17-.46.22-.62.72-2.12,7.09-17.43,14.95-36.2,6.43-15.37,13.94-33.23,20.36-48.5,1.46-3.48,2.87-6.83,4.19-10a14.53,14.53,0,0,1,7.46-7.47C238.21,431,268.73,418,284.92,411l3.87-12.86,0-.11,0-.1a23,23,0,0,1,10.61-11.85,14.81,14.81,0,0,1,8.1-1.7,13.13,13.13,0,0,1,8.16,4l4.37,4.37,11,11,3.72,3.72q4.72,4.72,9.44,9.44c2,2,4.06,4.07,6.1,6.09a24.55,24.55,0,0,1,4.78,5.69l0,.07a12.24,12.24,0,0,1,1.34,4.58,14.81,14.81,0,0,1-1.7,8.1A23,23,0,0,1,343,452.05l-.1,0-.11,0L329.88,456c-6.93,16.19-20,46.71-21.31,49.88a14.53,14.53,0,0,1-7.47,7.46l-10,4.19c-15.27,6.42-33.13,13.93-48.5,20.36-18.77,7.86-34.08,14.23-36.2,15l-.62.22a31.55,31.55,0,0,1-4.13,1.25c-1.69.34-4.89.73-7.17-1.55l-.85-.85-2.32-2.32Zm67.23-65.53h0l4.64,4.65L198.3,547.27l.71.7h0a4.44,4.44,0,0,0,1.31-.12,20.18,20.18,0,0,0,2.9-.89h0l1.05-.37c1.83-.62,16.78-6.83,35.78-14.78,15.36-6.43,33.2-13.93,48.47-20.35h0l10-4.21,0,0h0a8,8,0,0,0,3.86-3.89c1.32-3.17,14.08-33,21.07-49.3L306.63,437.1h0l-19.76-19.76c-16.31,7-46.13,19.75-49.3,21.07a8,8,0,0,0-3.89,3.86v0l0,0-4.12,9.8-.09.22c-6.42,15.27-13.92,33.12-20.35,48.48-8,19-14.16,33.95-14.78,35.78l-.37,1a20.18,20.18,0,0,0-.89,2.9,4.44,4.44,0,0,0-.12,1.31v0l.71.71,61.73-61.73Zm53.07-51.25h0l19.94,19.94,12.33-3.72a16.39,16.39,0,0,0,8.21-7.39,8.37,8.37,0,0,0,1-4.52,6.56,6.56,0,0,0-2.08-4.12l-.05,0,0-.05-.05,0,0-.05-.05,0,0-.05-.05,0,0,0,0,0,0-.05,0,0-.05,0,0,0-.05,0,0,0,0,0,0-.05-.05,0,0,0,0,0,0-.05,0,0,0-.05,0,0-.05-.05,0,0-.05,0,0-.05-.05,0,0-.05-.05,0,0-.05-.05,0,0-.05-.05,0,0,0,0,0,0,0,0-.05-.05,0,0-.05-.05,0,0,0,0,0,0-.05-.05,0,0,0,0,0-.05,0,0,0,0,0,0-.05-.05,0,0-.05-.05,0,0-.05,0,0,0-.05,0,0-.05-.05,0,0-.05,0,0-.05-.05,0,0-.05-.05,0,0-.05,0,0-.05,0,0-.05-.05,0,0-.05-.05,0,0-.05,0,0-.05,0,0-.05-.05,0,0-.05-.05,0,0,0,0,0-.05,0,0-.05-.05,0,0-.05,0,0-.05,0,0,0-.05,0,0-.05-.05,0,0-.05-.05,0,0,0,0-.05-.05,0,0,0,0,0-.05-.05,0,0-.05,0,0-.05-.05,0,0,0,0-.05-.05,0,0-.05,0,0-.05-.05,0,0-.05,0,0-.05,0,0-.05,0,0-.05-.05,0,0-.05,0,0-.05,0,0-.05-.05,0,0,0,0-.05-.05,0,0,0,0-.05-.05,0,0-.05,0,0-.05,0,0,0,0,0-.05,0,0,0,0,0,0,0,0,0,0,0,0,0,0-.05-.05,0,0,0,0-.05-.05,0,0,0,0-.05-.05,0,0,0,0-.05-.05,0,0,0,0-.05,0,0-.05,0,0-.05,0,0-.05,0,0-.05,0,0-.05,0,0,0,0-.05,0,0,0,0,0-.05,0,0,0,0,0,0,0-.05-.05,0,0,0,0-.05,0,0,0,0-.05,0,0,0,0,0-.05,0,0,0,0-.05,0,0-.05,0,0,0,0-.05,0,0,0,0,0,0,0-.05,0,0,0,0-.05,0,0-.05,0,0,0,0-.05,0,0,0,0-.05,0,0,0,0-.05,0,0,0,0-.05,0,0,0,0,0,0-.05,0,0,0,0,0,0,0,0,0-.05,0,0,0,0,0,0-.05,0,0,0,0-.05,0,0,0,0,0,0-.05,0,0,0,0,0,0,0,0-.05,0,0,0,0,0,0-.05,0,0,0,0,0,0,0,0-.05,0,0,0,0,0,0,0,0-.05,0,0,0,0,0,0,0,0,0,0,0,0,0,0-.05,0,0,0,0,0,0,0,0,0,0,0,0,0,0,0,0-.05,0,0,0-.05,0,0,0,0,0,0,0,0,0,0,0,0,0,0,0,0,0,0,0,0,0,0,0,0,0,0,0,0,0,0,0-.05,0,0,0,0,0,0,0,0,0,0,0,0,0,0,0,0,0,0,0,0,0,0,0,0,0,0,0,0,0,0,0,0,0,0,0,0,0,0,0,0,0,0,0,0,0,0,0,0,0,0,0,0,0,0,0,0,0,0,0,0,0,0,0,0,0,0,0,0,0,0,0,0,0,0,0,0,0,0,0,0,0,0,0,0,0,0,0,0,0,0,0,0,0,0,0,0,0,0,0,0,0,0,0,0,0,0,0,0,0,0,0,0,0,0,0,0,0,0,0,0,0,0,0,0,0,0,0,0,0,0,0,0,0,0,0,0,0,0,0,0,0,0,0,0,0,0,0,0,0,0,0,0,0,0,0,0,0,0,0,0,0,0,0,0,0,0,0,0,0,0,0,0,0,0,0,0,0,0,0,0,0,0,0,0,0,0,0,0,0,0,0,0,0,0,0,0,0,0,0,0,0,0,0,0,0,0,0,0,0,0,0,0,0,0,0,0,0,0,0,0,0,0,0,0,0,0,0,0,0,0,0,0,0,0,0,0,0,0,0,0,0,0,0,0,0,0,0,0,0,0,0,0,0,0,0,0,0,0,0,0,0,0,0,0,0,0,0,0,0,0,0,0,0,0,0,0,0,0,0,0,0,0,0,0,0,0,0,0,0,0h0L311.08,393A6.56,6.56,0,0,0,307,391a8.28,8.28,0,0,0-4.52,1,16.39,16.39,0,0,0-7.39,8.21l-3.72,12.33Z"/><line class="cls-5" x1="314.48" y1="389.15" x2="369.68" y2="333.96"/><path class="cls-3" d="M191.67,550.23l67-70.39"/><circle class="cls-3" cx="260.02" cy="476.63" r="9.86"/><line class="cls-5" x1="348.62" y1="427.3" x2="409.07" y2="364.21"/></g><path class="cls-6" d="M482.64,444.43c1.27-39.57-16-77.84-39.73-108.67-29.59-38.41-73.2-61.21-113.51-86.39-16.92-10.57-33.76-21.28-50.82-31.63-14.23-8.64-29.35-16.82-41.35-28.54-12.82-12.52-20.24-28.92-25.75-45.73-5.42,14.94-17.08,71,22.06,104.22.21-.33,26.25,16.34,28.59,17.83C313,298,366,328.39,412.54,366.94,438.23,388.56,482.64,444.43,482.64,444.43Z"/></svg>