<?xml version="1.0" encoding="utf-8"?>
<!-- Generator: Adobe Illustrator 22.0.1, SVG Export Plug-In . SVG Version: 6.00 Build 0)  -->
<svg version="1.1" id="Layer_1" xmlns="http://www.w3.org/2000/svg" xmlns:xlink="http://www.w3.org/1999/xlink" x="0px" y="0px"
	 viewBox="0 0 222 64" style="enable-background:new 0 0 222 64;" xml:space="preserve">
<style type="text/css">
	.st0{fill:#FE5D37;}
	.st1{fill:#103741;}
	.st2{fill:#FFFFFF;filter:url(#Adobe_OpacityMaskFilter);}
	.st3{mask:url(#mask0_511_2122_1_);}
	.st4{fill:#103741;stroke:#103741;stroke-width:0.2271;}
	.st5{fill:none;stroke:#103741;stroke-width:0.6813;}
	.st6{fill:#1D4969;}
</style>
<path class="st0" d="M61.9,53H55V30.7h7.2c2.2,0,4,0.4,5.6,1.3c1.5,0.9,2.7,2.2,3.5,3.8c0.8,1.7,1.2,3.6,1.2,5.9
	c0,2.3-0.4,4.3-1.2,6c-0.8,1.7-2,3-3.6,3.9C66.1,52.5,64.1,53,61.9,53z M57.7,50.6h4c1.8,0,3.4-0.4,4.6-1.1c1.2-0.7,2.1-1.7,2.7-3
	c0.6-1.3,0.9-2.9,0.9-4.7c0-1.8-0.3-3.4-0.9-4.7c-0.6-1.3-1.5-2.3-2.6-3c-1.2-0.7-2.6-1.1-4.4-1.1h-4.3V50.6z M83.7,53.3
	c-1.6,0-3-0.4-4.2-1.1c-1.2-0.7-2.1-1.7-2.7-3c-0.6-1.3-0.9-2.8-0.9-4.5c0-1.7,0.3-3.2,0.9-4.5c0.6-1.3,1.5-2.3,2.6-3.1
	c1.1-0.7,2.5-1.1,4-1.1c0.9,0,1.7,0.1,2.6,0.4c0.8,0.3,1.6,0.8,2.3,1.4c0.7,0.6,1.3,1.5,1.7,2.6c0.4,1.1,0.6,2.4,0.6,3.9v1.1H77.7
	v-2.2H88c0-0.9-0.2-1.8-0.6-2.5c-0.4-0.7-0.9-1.3-1.6-1.8c-0.7-0.4-1.5-0.6-2.4-0.6c-1,0-1.9,0.3-2.7,0.8c-0.7,0.5-1.3,1.2-1.7,2
	c-0.4,0.8-0.6,1.7-0.6,2.6v1.5c0,1.3,0.2,2.3,0.7,3.2c0.4,0.9,1.1,1.5,1.8,2c0.8,0.5,1.7,0.7,2.7,0.7c0.7,0,1.3-0.1,1.8-0.3
	c0.6-0.2,1-0.5,1.4-0.9c0.4-0.4,0.7-0.9,0.9-1.5l2.5,0.7c-0.3,0.8-0.7,1.6-1.3,2.2c-0.6,0.6-1.4,1.1-2.3,1.5
	C85.9,53.1,84.8,53.3,83.7,53.3z M106.4,40l-2.3,0.7c-0.1-0.4-0.4-0.8-0.6-1.1c-0.3-0.4-0.7-0.7-1.1-0.9c-0.5-0.2-1.1-0.4-1.8-0.4
	c-1,0-1.9,0.2-2.6,0.7c-0.7,0.5-1,1.1-1,1.8c0,0.6,0.2,1.1,0.7,1.5c0.5,0.4,1.2,0.7,2.2,0.9l2.5,0.6c1.5,0.4,2.6,0.9,3.3,1.7
	c0.7,0.7,1.1,1.7,1.1,2.9c0,1-0.3,1.8-0.8,2.6c-0.5,0.8-1.3,1.4-2.3,1.8c-1,0.4-2.1,0.7-3.4,0.7c-1.7,0-3.1-0.4-4.2-1.1
	s-1.8-1.8-2.1-3.2l2.4-0.6c0.2,0.9,0.7,1.6,1.3,2c0.7,0.5,1.5,0.7,2.6,0.7c1.2,0,2.1-0.3,2.9-0.8c0.7-0.5,1.1-1.1,1.1-1.9
	c0-0.6-0.2-1.1-0.6-1.5c-0.4-0.4-1-0.7-1.9-0.9l-2.8-0.7c-1.5-0.4-2.7-0.9-3.4-1.7c-0.7-0.8-1.1-1.7-1.1-2.9c0-0.9,0.3-1.8,0.8-2.5
	c0.5-0.7,1.3-1.3,2.2-1.7c0.9-0.4,2-0.6,3.2-0.6c1.7,0,3,0.4,3.9,1.1C105.3,37.8,106,38.8,106.4,40z M110.6,53V36.2h2.6V53H110.6z
	 M111.9,33.4c-0.5,0-0.9-0.2-1.3-0.5c-0.4-0.3-0.5-0.8-0.5-1.2c0-0.5,0.2-0.9,0.5-1.2c0.4-0.3,0.8-0.5,1.3-0.5s0.9,0.2,1.3,0.5
	c0.4,0.3,0.5,0.8,0.5,1.2c0,0.5-0.2,0.9-0.5,1.2C112.8,33.3,112.4,33.4,111.9,33.4z M124.6,59.6c-1.2,0-2.3-0.2-3.2-0.5
	c-0.9-0.3-1.6-0.7-2.2-1.2c-0.6-0.5-1.1-1.1-1.4-1.6l2-1.4c0.2,0.3,0.5,0.7,0.9,1c0.4,0.4,0.8,0.7,1.5,1c0.6,0.3,1.4,0.4,2.5,0.4
	c1.3,0,2.5-0.3,3.3-1c0.9-0.7,1.3-1.7,1.3-3.1v-3.4H129c-0.2,0.3-0.5,0.7-0.8,1.1c-0.3,0.4-0.8,0.8-1.5,1.2
	c-0.6,0.3-1.5,0.5-2.6,0.5c-1.4,0-2.6-0.3-3.6-1c-1.1-0.6-1.9-1.6-2.5-2.8c-0.6-1.2-0.9-2.7-0.9-4.4c0-1.7,0.3-3.2,0.9-4.5
	c0.6-1.3,1.4-2.3,2.5-3c1.1-0.7,2.3-1.1,3.7-1.1c1.1,0,2,0.2,2.6,0.5c0.6,0.4,1.1,0.8,1.5,1.2c0.3,0.5,0.6,0.8,0.8,1.1h0.3v-2.7h2.5
	v17.2c0,1.4-0.3,2.6-1,3.5c-0.6,0.9-1.5,1.6-2.6,2C127.1,59.4,125.9,59.6,124.6,59.6z M124.5,50.4c1,0,1.9-0.2,2.6-0.7
	c0.7-0.5,1.3-1.2,1.6-2c0.4-0.9,0.6-1.9,0.6-3.2c0-1.2-0.2-2.3-0.5-3.2c-0.4-0.9-0.9-1.6-1.6-2.2c-0.7-0.5-1.6-0.8-2.6-0.8
	c-1.1,0-2,0.3-2.7,0.8c-0.7,0.6-1.3,1.3-1.6,2.2c-0.4,0.9-0.5,2-0.5,3.1c0,1.2,0.2,2.2,0.5,3.1c0.4,0.9,0.9,1.6,1.6,2.1
	C122.5,50.1,123.4,50.4,124.5,50.4z M139.1,42.9V53h-2.6V36.2h2.5v2.6h0.2c0.4-0.8,1-1.5,1.8-2c0.8-0.5,1.8-0.8,3.1-0.8
	c1.1,0,2.1,0.2,3,0.7c0.8,0.5,1.5,1.2,2,2.1c0.5,0.9,0.7,2.1,0.7,3.5V53h-2.6V42.5c0-1.3-0.3-2.3-1-3.1c-0.7-0.7-1.6-1.1-2.8-1.1
	c-0.8,0-1.6,0.2-2.2,0.5c-0.6,0.4-1.1,0.9-1.5,1.6C139.3,41.1,139.1,41.9,139.1,42.9z"/>
<path class="st1" d="M152.2,33.1v-2.4h16.7v2.4h-7V53h-2.7V33.1H152.2z M177.3,53.3c-1.6,0-3-0.4-4.2-1.1c-1.2-0.7-2.1-1.7-2.7-3
	c-0.6-1.3-0.9-2.8-0.9-4.5c0-1.7,0.3-3.2,0.9-4.5c0.6-1.3,1.5-2.3,2.6-3.1c1.1-0.7,2.5-1.1,4-1.1c0.9,0,1.7,0.1,2.6,0.4
	c0.9,0.3,1.6,0.8,2.3,1.4c0.7,0.6,1.3,1.5,1.7,2.6c0.4,1.1,0.6,2.4,0.6,3.9v1.1h-12.9v-2.2h10.3c0-0.9-0.2-1.8-0.6-2.5
	c-0.4-0.7-0.9-1.3-1.6-1.8c-0.7-0.4-1.5-0.6-2.4-0.6c-1,0-1.9,0.3-2.7,0.8c-0.7,0.5-1.3,1.2-1.7,2c-0.4,0.8-0.6,1.7-0.6,2.6v1.5
	c0,1.3,0.2,2.3,0.7,3.2c0.4,0.9,1.1,1.5,1.8,2c0.8,0.5,1.7,0.7,2.7,0.7c0.7,0,1.3-0.1,1.8-0.3c0.6-0.2,1-0.5,1.4-0.9
	c0.4-0.4,0.7-0.9,0.9-1.5l2.5,0.7c-0.3,0.8-0.7,1.6-1.3,2.2c-0.6,0.6-1.4,1.1-2.3,1.5C179.5,53.1,178.5,53.3,177.3,53.3z M195,53.3
	c-1.6,0-2.9-0.4-4.1-1.1c-1.1-0.7-2-1.8-2.6-3.1c-0.6-1.3-0.9-2.8-0.9-4.5c0-1.7,0.3-3.2,0.9-4.5c0.6-1.3,1.5-2.3,2.6-3.1
	c1.1-0.7,2.5-1.1,4-1.1c1.2,0,2.2,0.2,3.2,0.7c0.9,0.4,1.7,1,2.3,1.8c0.6,0.8,1,1.7,1.1,2.7H199c-0.2-0.8-0.6-1.4-1.3-2
	c-0.7-0.6-1.6-0.9-2.7-0.9c-1,0-1.9,0.3-2.6,0.8c-0.7,0.5-1.3,1.2-1.8,2.2c-0.4,0.9-0.6,2-0.6,3.3c0,1.3,0.2,2.4,0.6,3.4
	c0.4,1,1,1.7,1.7,2.2c0.8,0.5,1.6,0.8,2.7,0.8c0.7,0,1.3-0.1,1.8-0.3c0.5-0.2,1-0.6,1.4-1c0.4-0.4,0.6-1,0.8-1.6h2.6
	c-0.1,1-0.5,1.9-1.1,2.7c-0.6,0.8-1.3,1.4-2.3,1.9C197.3,53.1,196.2,53.3,195,53.3z M207.9,42.9V53h-2.6V30.7h2.6v8.2h0.2
	c0.4-0.9,1-1.6,1.8-2.1c0.8-0.5,1.8-0.8,3.2-0.8c1.1,0,2.1,0.2,3,0.7c0.9,0.5,1.5,1.1,2,2.1c0.5,0.9,0.7,2.1,0.7,3.6V53h-2.6V42.5
	c0-1.3-0.3-2.4-1-3.1c-0.7-0.7-1.6-1.1-2.8-1.1c-0.8,0-1.6,0.2-2.3,0.5c-0.7,0.4-1.2,0.9-1.6,1.6C208.1,41.1,207.9,41.9,207.9,42.9z
	"/>
<defs>
	<filter id="Adobe_OpacityMaskFilter" filterUnits="userSpaceOnUse" x="1" y="24.8" width="48.2" height="39.3">
		<feColorMatrix  type="matrix" values="1 0 0 0 0  0 1 0 0 0  0 0 1 0 0  0 0 0 1 0"/>
	</filter>
</defs>
<mask maskUnits="userSpaceOnUse" x="1" y="24.8" width="48.2" height="39.3" id="mask0_511_2122_1_">
	<path class="st2" d="M49.2,15H0v49h49.2V15z"/>
</mask>
<g class="st3">
	<path class="st1" d="M31.7,36.9l7.4-7.6l0.4-0.2c-0.4-0.5-2.1-2-5.2-4.1c-0.4,0-5.1,4.9-7.4,7.3l-0.1,0.1L31.7,36.9z"/>
	<path class="st4" d="M9,63.8c-2.6,0-5.2-0.1-7.8-0.1V29.2h6.3v28.3h0.1c2.4-0.1,4.7-0.1,7.1-0.1c1.4,0,2.7,0,4.1,0
		c3.7-0.1,7.3-0.3,10.8-1c6.3-1.3,10.6-6.1,12.3-11.7c1.7-5.7,0.7-12.2-3.6-17c-0.3-0.3-0.6-0.7-1-1l0,0c-0.3-0.3-0.6-0.6-0.9-0.9
		c3.2,0,6.2,1.5,8.5,3.9c2.4,2.4,4,5.6,4.2,9c0.7,12.5-9.4,24.3-21.9,25C21.1,64,15.1,63.9,9,63.8z"/>
	<path class="st1" d="M10.5,52.9c-0.3-0.3-0.2-0.7-0.2-0.9c0-0.2,0.1-0.4,0.2-0.5c0,0,0-0.1,0-0.1c0.1-0.3,0.9-2.3,2-4.8
		c0.8-2,1.8-4.4,2.7-6.4c0.2-0.5,0.4-0.9,0.6-1.3c0.2-0.4,0.5-0.8,1-1c0.4-0.2,4.4-1.9,6.5-2.8l0.5-1.7v0v0c0.3-0.7,0.8-1.2,1.4-1.6
		c0.3-0.2,0.7-0.3,1.1-0.2c0.4,0,0.8,0.2,1.1,0.5l0.6,0.6l1.4,1.4l0.5,0.5c0.4,0.4,0.8,0.8,1.2,1.2c0.3,0.3,0.5,0.5,0.8,0.8
		c0.2,0.2,0.5,0.5,0.6,0.7v0c0.1,0.2,0.2,0.4,0.2,0.6c0,0.4,0,0.7-0.2,1.1c-0.3,0.6-0.9,1.1-1.5,1.4h0h0L29.1,41
		c-0.9,2.1-2.6,6.1-2.8,6.5c-0.2,0.4-0.5,0.8-1,1L24,49.1c-2,0.8-4.3,1.8-6.4,2.7c-2.5,1-4.5,1.9-4.8,2l-0.1,0
		c-0.2,0.1-0.4,0.1-0.5,0.2c-0.2,0-0.6,0.1-0.9-0.2l-0.1-0.1l-0.3-0.3L10.5,52.9z M19.4,44.3l0.6,0.6L11.9,53l0.1,0.1
		c0.1,0,0.1,0,0.2,0c0.1,0,0.3-0.1,0.4-0.1l0.1,0c0.2-0.1,2.2-0.9,4.7-1.9c2-0.8,4.4-1.8,6.4-2.7l1.3-0.6c0.2-0.1,0.4-0.3,0.5-0.5
		c0.2-0.4,1.8-4.3,2.8-6.5l-2.2-2.2l-2.6-2.6c-2.1,0.9-6.1,2.6-6.5,2.8c-0.2,0.1-0.4,0.3-0.5,0.5L16,40.5l0,0
		c-0.8,2-1.8,4.3-2.7,6.4c-1.1,2.5-1.9,4.5-1.9,4.7l0,0.1c0,0.1-0.1,0.3-0.1,0.4c0,0.1,0,0.1,0,0.2l0.1,0.1L19.4,44.3L19.4,44.3z
		 M26.3,37.6l2.6,2.6l1.6-0.5c0.5-0.2,0.8-0.5,1.1-1c0.1-0.2,0.1-0.4,0.1-0.6c0-0.2-0.1-0.4-0.3-0.5h0v0h0v0h0v0h0v0h0h0v0h0v0v0
		l0,0h0v0h0v0h0v0h0v0h0v0h0v0h0v0h0h0v0h0v0h0v0v0l0,0h0v0h0v0h0v0h0v0h0v0h0v0h0v0h0v0h0h0v0h0v0h0h0v0h0v0h0v0h0l0,0h0v0h0v0h0v0
		l0,0h0v0h0v0h0v0h0v0h0v0h0v0h0v0h0h0v0h0v0h0v0h0v0h0v0h0v0h0v0h0v0v0v0h0v0h0h0v0h0v0v0h0v0h0v0h0v0h0h0v0h0v0h0v0h0v0h0v0v0v0
		l-4.4-4.4c-0.1-0.1-0.3-0.2-0.5-0.3c-0.2,0-0.4,0-0.6,0.1c-0.4,0.2-0.8,0.6-1,1.1l-0.5,1.6L26.3,37.6z"/>
	<path class="st5" d="M27.1,32.2l7.2-7.2"/>
	<path class="st6" d="M11,53.4l8.8-9.2L11,53.4z"/>
	<path class="st6" d="M19.9,45c0.7,0,1.3-0.6,1.3-1.3c0-0.7-0.6-1.3-1.3-1.3c-0.7,0-1.3,0.6-1.3,1.3C18.7,44.4,19.2,45,19.9,45z"/>
	<path class="st5" d="M31.6,37.3l7.9-8.3"/>
</g>
<path class="st0" d="M49.2,39.5c0.2-5.2-2.1-10.2-5.2-14.3c-3.9-5-9.6-8-14.9-11.3c-2.2-1.4-4.4-2.8-6.7-4.2
	c-1.9-1.1-3.9-2.2-5.4-3.7c-1.7-1.6-2.7-3.8-3.4-6c-0.7,2-2.2,9.3,2.9,13.7c0,0,3.4,2.1,3.8,2.3c6.7,4.3,13.6,8.3,19.7,13.3
	C43.3,32.2,49.2,39.5,49.2,39.5z"/>
</svg>
